<?xml version="1.0" encoding="UTF-8" standalone="no"?>
<svg
   version="1.1"
   width="1536"
   height="1514"
   viewBox="0 0 1536 1514"
   id="svg6"
   sodipodi:docname="favicon.svg"
   inkscape:version="1.1.2 (0a00cf5339, 2022-02-04)"
   xmlns:inkscape="http://www.inkscape.org/namespaces/inkscape"
   xmlns:sodipodi="http://sodipodi.sourceforge.net/DTD/sodipodi-0.dtd"
   xmlns="http://www.w3.org/2000/svg"
   xmlns:svg="http://www.w3.org/2000/svg">
  <defs
     id="defs10" />
  <sodipodi:namedview
     id="namedview8"
     pagecolor="#ffffff"
     bordercolor="#111111"
     borderopacity="1"
     inkscape:pageshadow="0"
     inkscape:pageopacity="0"
     inkscape:pagecheckerboard="1"
     showgrid="false"
     inkscape:zoom="0.54161162"
     inkscape:cx="666.52927"
     inkscape:cy="757"
     inkscape:window-width="1920"
     inkscape:window-height="1012"
     inkscape:window-x="0"
     inkscape:window-y="0"
     inkscape:window-maximized="1"
     inkscape:current-layer="svg6" />
  <style
     id="style4">@media (prefers-color-scheme: light) { :root { filter: none; } }
@media (prefers-color-scheme: dark) { :root { filter: none; } }
</style>
  <path
     style="display:inline;fill:#0000ff;stroke-width:1.84634"
     d="m 539.71504,952.11014 c -11.01671,-4.06173 -21.68467,-13.23107 -27.35528,-23.51244 l -5.53903,-10.04282 -0.5282,-89.99068 -0.5282,-89.99071 -5.01082,-1.1021 C 471.51754,731.04112 436.63132,716.00492 409.8878,698.30767 390.40533,685.41535 358.50012,654.6469 344.61111,635.35675 267.15782,527.78356 280.56219,382.52854 376.35362,291.38249 c 47.1952,-44.90648 111.83426,-71.70894 172.79674,-71.64982 22.23354,0.0216 32.89067,4.00613 44.16624,16.51321 9.70825,10.76859 12.90146,19.04413 12.85687,33.31997 -0.0598,19.16158 -10.782,36.1927 -28.57981,45.39631 -3.44537,1.78166 -14.11765,3.6897 -26.28546,4.69943 -45.66187,3.78918 -76.71547,16.92758 -106.08914,44.88499 -84.30619,80.24134 -58.0172,221.01229 49.60045,265.59794 17.69591,7.33137 31.71603,10.45999 54.74598,12.21667 30.08287,2.29466 43.163,10.04851 53.06991,31.45963 3.82376,8.26402 3.88777,10.33252 3.88777,125.64503 0,131.12365 0.78163,123.04387 -13.42794,138.80648 -12.9104,14.32142 -35.90237,20.28167 -53.38019,13.83781 z"
     id="path937" />
  <path
     style="display:inline;fill:#0000ff;stroke-width:1.84634"
     d="m 962.65539,1164.0326 c -26.65558,-9.9118 -39.87896,-42.4928 -27.6915,-68.2289 9.48861,-20.0371 22.92437,-27.3477 55.63993,-30.2747 12.20878,-1.0922 26.74868,-3.3293 32.31098,-4.9711 55.6112,-16.4151 97.1762,-57.9205 113.0084,-112.84654 3.4674,-12.02908 4.1504,-18.92275 4.1697,-42.08087 0.027,-33.0922 -2.5234,-44.80728 -15.6791,-72.00732 -15.8198,-32.70827 -40.0983,-57.00472 -72.9223,-72.97615 -22.6357,-11.014 -36.1598,-14.56412 -63.27061,-16.60874 -15.14682,-1.14232 -23.20449,-2.67362 -29.109,-5.53196 -10.7865,-5.22165 -23.74892,-19.82594 -26.5165,-29.8752 -1.60735,-5.83638 -2.04573,-39.05602 -1.65203,-125.18722 0.59681,-130.56553 -0.12796,-123.1863 13.47471,-137.19253 20.42168,-21.02753 54.35734,-19.8502 73.53193,2.55104 12.27,14.33467 12.3085,14.68426 12.3085,111.59732 v 87.07851 l 10.6165,2.36579 c 44.1548,9.8395 89.5622,35.48096 124.2384,70.15717 37.6181,37.61804 61.8259,82.843 72.1846,134.8549 5.4099,27.16328 5.8344,69.45386 0.9637,96.00975 -19.2295,104.84325 -101.3718,189.30865 -204.8417,210.63495 -24.8759,5.1273 -60.36968,6.3971 -70.76461,2.5318 z"
     id="path976" />
  <path
     style="display:inline;fill:#8c1627;fill-opacity:1;stroke-width:1.84634"
     d="m 516.05244,1164.0855 c -55.06327,-8.91 -104.62765,-34.4508 -145.00977,-74.7244 -44.30348,-44.1843 -69.25582,-97.45167 -75.68733,-161.57451 -3.04539,-30.36279 -0.47538,-42.19456 12.21674,-56.24322 9.46401,-10.47552 19.42733,-15.20955 34.24971,-16.2736 10.28018,-0.73798 13.84447,-0.14937 22.16733,3.661 21.30668,9.75454 29.07989,22.7526 31.28633,52.31586 1.83932,24.64418 3.7198,33.58529 11.0749,52.6577 17.41002,45.14567 55.66576,80.37377 104.16306,95.91937 19.69059,6.3117 60.57797,7.3163 82.71859,2.0323 58.45438,-13.9503 103.43035,-58.0119 119.88977,-117.45234 l 4.09011,-14.77073 1.0766,-243.71708 c 0.98292,-222.50549 1.35507,-244.88182 4.27603,-257.0998 19.23111,-80.44097 67.79713,-144.44445 136.30856,-179.63638 22.80837,-11.71586 37.69572,-17.33319 62.36993,-23.53358 17.84945,-4.48539 22.61473,-4.89694 57.31798,-4.9502 32.96912,-0.0506 40.30962,0.49275 56.92392,4.21344 50.521,11.314 94.3817,35.66681 131.0861,72.78303 45.0062,45.51115 70.9739,104.19449 75.4042,170.40304 1.5864,23.70736 -1.9476,35.06418 -14.9609,48.07746 -16.3239,16.32395 -37.3654,19.74878 -57.6746,9.38748 -19.0484,-9.71798 -26.0853,-22.5992 -28.2859,-51.77753 -3.2773,-43.45577 -16.6543,-74.7741 -44.1377,-103.33563 -44.6374,-46.38837 -107.75799,-62.08694 -168.20634,-41.83421 -52.11212,17.45975 -90.35833,58.58639 -105.63047,113.58581 l -4.10152,14.77073 -1.0959,243.71708 c -1.00592,223.7098 -1.36239,244.85384 -4.34228,257.56463 -18.6652,79.61718 -67.78663,143.94108 -137.07966,179.50398 -20.55538,10.5495 -38.68259,17.108 -63.47456,22.9653 -24.89559,5.8817 -71.40246,7.4962 -96.93293,3.365 z"
     id="path8588" />
  <path
     style="display:inline;fill:#8c1627;fill-opacity:1;stroke-width:1.84634"
     d="m 540.26762,528.83048 c -12.90348,-4.12046 -27.56228,-19.14227 -31.44794,-32.22672 -3.63274,-12.23276 -3.67497,-18.88866 -0.1942,-30.60966 7.40369,-24.93095 35.74812,-40.43891 60.66977,-33.19399 36.2902,10.54985 48.88548,52.93482 24.35505,81.95834 -11.59869,13.72315 -35.08623,19.91462 -53.38268,14.07203 z"
     id="path38813" />
  <path
     style="display:inline;fill:#ed9200;fill-opacity:1;stroke-width:1.84634"
     d="m 960.09756,950.72084 c -18.55818,-8.39084 -29.50539,-25.46295 -29.50539,-46.01352 0,-26.58039 18.42764,-47.01571 44.53104,-49.38269 21.73365,-1.97074 39.69079,7.98723 49.38429,27.38556 12.7265,25.46798 3.0999,54.40676 -22.311,67.06952 -12.33028,6.14445 -29.73034,6.53343 -42.09894,0.94113 z"
     id="path38852" />
  <path
     style="fill:#ed9200;fill-opacity:1;stroke-width:1.84634"
     d="m 228.94634,1244.4341 v -49.8512 h 25.94047 c 28.0669,0 31.91391,0.9838 40.87195,10.4517 6.31405,6.6734 8.88758,13.5377 8.88758,23.7056 0,10.1496 -2.56303,17.004 -8.88758,23.7683 -7.02696,7.5155 -15.02134,10.3891 -28.90312,10.3891 h -12.06052 v 15.6939 15.6939 h -12.92439 -12.92439 z m 47.93992,-7.2639 c 2.59364,-4.8463 2.41574,-15.4955 -0.30431,-18.2156 -1.21858,-1.2186 -6.61913,-2.2156 -12.00122,-2.2156 h -9.78561 v 12.0012 12.0013 h 10.08992 c 8.08595,0 10.46952,-0.7093 12.00122,-3.5713 z"
     id="path43569" />
  <path
     style="fill:#ed9200;fill-opacity:1;stroke-width:1.84634"
     d="m 319.41707,1244.4341 v -49.8512 h 34.15732 34.15732 v 11.0781 11.078 h -21.23293 -21.23293 v 8.3086 8.3085 h 18.46342 18.46341 v 10.1549 10.1549 h -18.46341 -18.46342 v 9.2317 9.2317 h 22.1561 22.1561 v 11.078 11.0781 h -35.08049 -35.08049 z"
     id="path43608" />
  <path
     style="fill:#ed9200;fill-opacity:1;stroke-width:1.84634"
     d="m 404.34878,1244.3071 v -49.9783 l 29.23057,0.5887 c 28.78252,0.5796 29.33466,0.6681 36.02071,5.773 17.14995,13.0943 18.90349,36.703 3.93477,52.9754 l -4.24605,4.6158 9.99585,17.2182 c 5.49772,9.47 9.99586,17.5708 9.99586,18.0018 0,0.431 -6.15481,0.7837 -13.67736,0.7837 h -13.67735 l -8.8091,-15.6939 c -8.65493,-15.4193 -8.93257,-15.6939 -15.86411,-15.6939 h -7.05501 v 15.6939 15.6939 h -12.92439 -12.92439 z m 50.16742,-6.6213 c 4.20714,-3.8074 4.3766,-13.0887 0.32081,-17.5703 -2.29635,-2.5374 -5.73739,-3.3765 -13.84756,-3.3765 h -10.79189 v 12.0012 12.0013 h 10.47108 c 7.15244,0 11.54121,-0.9685 13.84756,-3.0557 z"
     id="path43647" />
  <path
     style="fill:#ed9200;fill-opacity:1;stroke-width:1.84634"
     d="m 502.20488,1244.4341 v -49.8512 h 35.08049 35.08048 v 11.0781 11.078 h -22.15609 -22.1561 v 8.3086 8.3085 h 18.46341 18.46342 v 10.1549 10.1549 h -18.46342 -18.46341 v 9.2317 9.2317 h 22.1561 22.15609 v 11.078 11.0781 h -35.08048 -35.08049 z"
     id="path43686" />
  <path
     style="fill:#ed9200;fill-opacity:1;stroke-width:1.84634"
     d="m 588.98293,1244.4341 v -49.8512 h 26.33917 c 29.83934,0 34.805,1.5277 44.69871,13.7517 5.07655,6.2723 5.58529,8.1292 5.58529,20.3872 0,12.4527 -0.45988,14.0585 -6.00061,20.9532 -3.30034,4.1069 -6.00061,8.0958 -6.00061,8.8643 0,0.7685 4.15427,8.7038 9.23171,17.6339 5.07743,8.9302 9.2317,16.6587 9.2317,17.1745 0,0.5157 -6.08274,0.9377 -13.5172,0.9377 h -13.51721 l -8.86412,-15.792 c -8.78481,-15.6506 -8.92406,-15.7869 -15.56267,-15.2323 l -6.69855,0.5596 -0.53626,15.2323 -0.53626,15.2324 h -11.92654 -11.92655 z m 48.79616,-6.594 c 1.59577,-1.5958 2.9014,-5.6907 2.9014,-9.0999 0,-9.1978 -3.91237,-12.0012 -16.74896,-12.0012 h -10.94616 v 10.7703 c 0,5.9237 0.5539,11.3243 1.23089,12.0013 2.54711,2.5471 20.62701,1.2653 23.56283,-1.6705 z"
     id="path43725" />
  <path
     style="fill:#ed9200;fill-opacity:1;stroke-width:1.84634"
     d="m 677.71465,1291.9774 c 0.059,-1.2693 6.95284,-23.4947 15.31956,-49.3896 l 15.21222,-47.0817 14.98929,-0.5337 14.98929,-0.5338 10.20638,31.9216 c 5.6135,17.5568 12.41349,38.9245 15.11106,47.4837 2.69758,8.5593 5.32597,16.6601 5.84086,18.0019 0.72081,1.8784 -2.03072,2.4396 -11.96177,2.4396 -14.05926,0 -14.65249,-0.5012 -18.11622,-15.3035 l -1.20476,-5.1486 -14.86722,0.5327 -14.86721,0.5328 -2.69148,9.6933 -2.69149,9.6933 h -12.68792 c -8.97669,0 -12.65653,-0.6751 -12.58059,-2.308 z m 55.31264,-36.0036 c 0.0826,-3.849 -8.31954,-35.5421 -9.42258,-35.5421 -0.70436,0 -3.08733,6.8546 -5.29548,15.2323 -2.20815,8.3778 -4.43229,16.6863 -4.94254,18.4634 -0.80436,2.8015 0.43924,3.2311 9.35157,3.2311 5.65362,0 10.29268,-0.6231 10.30903,-1.3847 z"
     id="path43764" />
  <path
     style="fill:#ed9200;fill-opacity:1;stroke-width:1.84634"
     d="m 808.69756,1244.4341 v -49.8512 h 35.08049 35.08049 v 11.0781 11.078 h -22.1561 -22.1561 v 8.3086 8.3085 h 18.46342 18.46341 v 10.1549 10.1549 h -18.46341 -18.46342 v 9.2317 9.2317 h 23.07927 23.07927 v 11.078 11.0781 h -36.00366 -36.00366 z"
     id="path43803" />
  <path
     style="fill:#ed9200;fill-opacity:1;stroke-width:1.84634"
     d="m 918.70443,1294.2443 c -4.99518,-0.8736 -13.87813,-3.382 -19.73989,-5.5742 l -10.65774,-3.9857 5.64385,-11.4451 5.64385,-11.4451 9.18281,4.3947 c 9.94356,4.7588 26.71398,7.1684 30.74649,4.4178 5.46903,-3.7306 0.45454,-9.1925 -12.28449,-13.3805 -27.12044,-8.9161 -33.61004,-14.8386 -33.61004,-30.673 0,-5.4986 1.24541,-12.4059 2.76757,-15.3494 6.18562,-11.9617 23.97681,-19.8597 39.49445,-17.5327 9.53395,1.4297 27.32038,7.7137 28.85321,10.1938 0.92137,1.4908 -7.47119,20.2595 -9.05919,20.2595 -0.36155,0 -4.51557,-1.7067 -9.23116,-3.7926 -5.72005,-2.5303 -11.48273,-3.6057 -17.31337,-3.2311 -7.92193,0.509 -8.73956,0.9899 -8.73956,5.1411 0,4.0709 1.74313,5.2099 15.6939,10.2547 8.63165,3.1214 17.35561,6.5925 19.38659,7.7137 15.44263,8.525 18.50644,29.9206 6.27883,43.847 -8.25842,9.4059 -24.947,13.3544 -43.05611,10.1871 z"
     id="path43842" />
  <path
     style="fill:#ed9200;fill-opacity:1;stroke-width:1.84634"
     d="m 1006.2561,1255.5122 v -38.7732 h -14.77073 -14.77074 v -11.078 -11.0781 h 42.46587 42.4658 v 11.0781 11.078 h -14.7707 -14.7707 v 38.7732 38.7732 h -12.9244 -12.9244 z"
     id="path43881" />
  <path
     style="fill:#ed9200;fill-opacity:1;stroke-width:1.84634"
     d="m 1056.53,1292.063 c 1.1419,-3.0942 5.9645,-18.1124 19.8893,-61.938 l 11.2929,-35.5421 15.1238,0.031 15.1238,0.031 14.7707,47.1415 c 8.1239,25.9278 15.0394,48.3469 15.3677,49.8202 0.4768,2.1394 -1.9648,2.6788 -12.1256,2.6788 H 1123.25 l -3.2011,-10.1549 -3.201,-10.1549 h -14.4399 -14.4399 l -2.6906,9.6933 -2.6906,9.6933 -13.4702,0.5471 c -10.4246,0.4234 -13.2704,0.01 -12.5867,-1.8463 z m 56.3546,-37.0124 c -0.4699,-1.2693 -2.7618,-9.5779 -5.093,-18.4634 -2.3313,-8.8855 -4.7488,-16.1555 -5.3722,-16.1555 -1.1537,0 -9.4023,30.4067 -9.3913,34.6189 0,1.5712 3.3106,2.3079 10.3585,2.3079 7.5067,0 10.1175,-0.6344 9.498,-2.3079 z"
     id="path43920" />
  <path
     style="fill:#ed9200;fill-opacity:1;stroke-width:1.84634"
     d="m 1172.4268,1255.5122 v -38.7732 h -14.7707 -14.7707 v -11.078 -11.0781 h 42.4658 42.4659 v 11.0781 11.078 h -14.7708 -14.7707 v 38.7732 38.7732 h -12.9244 -12.9244 z"
     id="path43959" />
  <path
     style="display:inline;fill:#ed9200;fill-opacity:1;stroke-width:1.84634"
     d="m 1240.7415,1244.4341 v -49.8512 h 35.0805 35.0804 v 11.0781 11.078 h -22.1561 -22.1561 v 8.3086 8.3085 h 18.4635 18.4634 v 10.1549 10.1549 h -18.4634 -18.4635 v 9.2317 9.2317 h 22.1561 22.1561 v 11.078 11.0781 h -35.0804 -35.0805 z"
     id="path43998" />
</svg>
