<?xml version="1.0" encoding="UTF-8" standalone="no"?>
<svg
   version="1.1"
   viewBox="0 0 13.705299282164075 13.510489369429834"
   id="svg50"
   sodipodi:docname="logo.svg"
   inkscape:version="1.1.2 (0a00cf5339, 2022-02-04)"
   xmlns:inkscape="http://www.inkscape.org/namespaces/inkscape"
   xmlns:sodipodi="http://sodipodi.sourceforge.net/DTD/sodipodi-0.dtd"
   xmlns="http://www.w3.org/2000/svg"
   xmlns:svg="http://www.w3.org/2000/svg">
  <sodipodi:namedview
     id="namedview52"
     pagecolor="#ffffff"
     bordercolor="#111111"
     borderopacity="1"
     inkscape:pageshadow="0"
     inkscape:pageopacity="0"
     inkscape:pagecheckerboard="1"
     showgrid="false"
     inkscape:zoom="60.693582"
     inkscape:cx="6.8458639"
     inkscape:cy="4.1190517"
     inkscape:window-width="1920"
     inkscape:window-height="1012"
     inkscape:window-x="0"
     inkscape:window-y="0"
     inkscape:window-maximized="1"
     inkscape:current-layer="svg50" />
  <g
     clip-path="url(#SvgjsClipPath567838b9f6152-d6ec-4752-b3e9-4a5d3092d47b)"
     id="g6"
     transform="matrix(0.85626096,0,0,0.85626096,1.9559857,10.637321)">
    <path
       d="m 6.2558593,-2.9947456 c 0,0.1424267 -0.056593,0.2790168 -0.1573242,0.3797077 -0.1007308,0.1006908 -0.2373434,0.1572299 -0.37977,0.1571734 C 5.5763384,-2.457808 5.4397258,-2.5143471 5.338995,-2.6150379 5.2382642,-2.7157288 5.1816708,-2.8523189 5.1816708,-2.9947456 v -4.4155158 c 0,-0.1424463 0.056587,-0.2790583 0.1573113,-0.379783 0.1007247,-0.1007247 0.2373367,-0.1573113 0.379783,-0.1573113 0.1424462,0 0.2790582,0.056587 0.3797829,0.1573113 0.1007247,0.1007247 0.1573113,0.2373367 0.1573113,0.379783 z"
       fill="#23953c"
       fill-rule="evenodd"
       id="path4" />
  </g>
  <g
     clip-path="url(#SvgjsClipPath567838b9f6152-d6ec-4752-b3e9-4a5d3092d47b)"
     id="g10"
     transform="matrix(0.85626096,0,0,0.85626096,1.9559857,10.637321)">
    <path
       d="m 3.5109005,-0.25 c -1.5157978,-1.1775e-4 -2.74453233,-1.2289477 -2.74453233,-2.7447456 -5.656e-5,-0.1424266 0.0564826,-0.2790392 0.15717341,-0.37977 0.10069082,-0.1007308 0.23728092,-0.1573242 0.37970762,-0.1573242 0.1424832,0 0.2791275,0.056616 0.3798584,0.1573866 0.1007308,0.1007709 0.1572924,0.2374377 0.1572358,0.3799209 1.178e-4,0.9225399 0.7480172,1.6703438 1.6705571,1.6703438 0.4430593,5.66e-5 0.8679945,-0.1758938 1.1813247,-0.489144 0.3133302,-0.3132503 0.4893891,-0.7381406 0.4894456,-1.1811998 -5.65e-5,-0.1424832 0.056505,-0.27915 0.1572359,-0.3799209 0.1007308,-0.1007708 0.2373752,-0.1573866 0.3798584,-0.1573866 0.1424462,0 0.2790582,0.056587 0.3797829,0.1573113 0.1007247,0.1007247 0.1573113,0.2373367 0.1573113,0.3797829 C 6.2556238,-1.4788787 5.0267674,-0.25011772 3.5109005,-0.25 Z"
       fill="#23953c"
       fill-rule="evenodd"
       id="path8" />
  </g>
  <g
     clip-path="url(#SvgjsClipPath567838b9f6152-d6ec-4752-b3e9-4a5d3092d47b)"
     id="g14"
     transform="matrix(0.85626096,0,0,0.85626096,1.9559857,10.637321)"
     style="fill:#0000ff">
    <path
       d="M 10.671375,-2.9949588 C 10.671257,-1.4790919 9.4424964,-0.25023547 7.9266296,-0.25 7.7841834,-0.25 7.6475713,-0.3065866 7.5468466,-0.40731126 7.4461219,-0.50803597 7.3895354,-0.64464799 7.3895354,-0.78709423 c 0,-0.1424832 0.056616,-0.27912757 0.1573866,-0.37985837 C 7.6476928,-1.2676834 7.7843596,-1.324245 7.9268428,-1.3241885 8.3699021,-1.324245 8.7947924,-1.5003039 9.1080426,-1.8136341 9.4212929,-2.1269643 9.5972432,-2.5518995 9.5971867,-2.9949588 9.597069,-3.91745 8.849334,-4.6652804 7.9268428,-4.6655159 7.7841899,-4.6656289 7.6474278,-4.7224206 7.5466569,-4.8233913 7.4458861,-4.9243621 7.3893656,-5.0612366 7.3895354,-5.2038894 v -2.206372 c 0,-0.1424463 0.056586,-0.2790583 0.1573112,-0.379783 0.1007247,-0.1007247 0.2373368,-0.1573113 0.379783,-0.1573113 0.1424266,0 0.2790168,0.056593 0.3797076,0.1573242 0.1006909,0.1007309 0.15723,0.2373434 0.1571734,0.3797701 v 1.7232217 c 1.2835271,0.2564323 2.2076174,1.3831886 2.2078644,2.6920809 z"
       fill="#0e0904"
       fill-rule="evenodd"
       id="path12"
       style="fill:#0000ff" />
  </g>
  <g
     clip-path="url(#SvgjsClipPath567838b9f6152-d6ec-4752-b3e9-4a5d3092d47b)"
     id="g18"
     transform="matrix(0.85626096,0,0,0.85626096,1.9559857,10.637321)">
    <path
       d="M 7.9266296,-2.4578645 C 7.784203,-2.457808 7.6475904,-2.5143471 7.5468595,-2.6150379 7.4461287,-2.7157288 7.3895354,-2.8523189 7.3895354,-2.9947456 c 0,-0.1424462 0.056586,-0.2790582 0.1573112,-0.3797829 0.1007247,-0.1007247 0.2373368,-0.1573113 0.379783,-0.1573113 v 0 c 0.1424266,0 0.2790168,0.056593 0.3797076,0.1573242 0.1006909,0.1007308 0.15723,0.2373434 0.1571734,0.37977 0,0.1423897 -0.056564,0.2789475 -0.1572488,0.3796322 -0.1006847,0.1006848 -0.2372425,0.1572489 -0.3796322,0.1572489 z"
       fill="#8c1627"
       fill-rule="evenodd"
       id="path16" />
  </g>
  <g
     clip-path="url(#SvgjsClipPath567838b9f6152-d6ec-4752-b3e9-4a5d3092d47b)"
     id="g22"
     transform="matrix(0.85626096,0,0,0.85626096,1.9559857,10.637321)">
    <path
       d="m 7.9266296,-10.155007 c 0.7279518,0 1.4260886,0.2891777 1.9408282,0.8039174 0.5147392,0.5147396 0.8039172,1.2128764 0.8039172,1.9408282 0,0.1424266 -0.05659,0.2790167 -0.157324,0.3797076 -0.100731,0.1006908 -0.237343,0.15723 -0.37977,0.1571734 -0.1424833,0 -0.2791276,-0.056616 -0.3798585,-0.1573866 C 9.6536917,-7.1315379 9.5971301,-7.2682047 9.5971867,-7.4106879 9.5970689,-8.3332278 8.8491695,-9.0810317 7.9266296,-9.0810317 c -0.4430593,-5.66e-5 -0.8679945,0.1758938 -1.1813247,0.489144 -0.3133302,0.3132503 -0.4893891,0.7381406 -0.4894456,1.1811998 5.66e-5,0.1424832 -0.056505,0.27915 -0.1572359,0.3799209 C 5.9978926,-6.9299962 5.8612483,-6.8733804 5.7187651,-6.8733804 5.5763384,-6.8733238 5.4397258,-6.929863 5.338995,-7.0305538 5.2382642,-7.1312447 5.1816708,-7.2678348 5.1816708,-7.4102614 5.1817886,-8.926177 6.410714,-10.155007 7.9266296,-10.155007 Z"
       fill="#23953c"
       fill-rule="evenodd"
       id="path20" />
  </g>
  <g
     clip-path="url(#SvgjsClipPath567838b9f6152-d6ec-4752-b3e9-4a5d3092d47b)"
     id="g26"
     transform="matrix(0.85626096,0,0,0.85626096,1.9559857,10.637321)">
    <path
       d="m 3.5109005,-7.9473557 c 0.1424463,0 0.2790583,0.056587 0.379783,0.1573113 0.1007247,0.1007247 0.1573112,0.2373367 0.1573112,0.379783 10e-8,0.1424266 -0.056593,0.2790167 -0.1573241,0.3797076 -0.1007309,0.1006908 -0.2373434,0.15723 -0.3797701,0.1571734 v 0 c -0.1423897,0 -0.2789475,-0.056564 -0.3796322,-0.1572488 -0.1006847,-0.1006847 -0.1572488,-0.2372425 -0.1572488,-0.3796322 -5.66e-5,-0.1424267 0.056483,-0.2790392 0.1571734,-0.3797701 0.1006909,-0.1007308 0.237281,-0.1573242 0.3797076,-0.1573242 z"
       fill="#8c1627"
       fill-rule="evenodd"
       id="path24" />
  </g>
  <path
     d="m 2.6120143,4.2922035 c 0,-0.6233167 0.2476116,-1.2211039 0.688363,-1.6618555 0.4407514,-0.4407514 1.0385387,-0.688363 1.6618554,-0.688363 0.1219545,-4.88e-5 0.2389304,0.048362 0.3251823,0.1345814 0.086252,0.086218 0.1347106,0.2031745 0.1347105,0.3251288 1e-7,0.1220028 -0.048478,0.2390061 -0.134764,0.3252579 C 5.2010754,2.813205 5.084053,2.8616365 4.9620502,2.8615881 4.5826758,2.8616365 4.2188588,3.0123888 3.9506349,3.2806812 3.682411,3.5489737 3.5317515,3.9128291 3.5317999,4.2922035 c -4.84e-5,0.3793576 0.1506169,0.7431941 0.418846,1.0114576 0.2682293,0.2682635 0.6320467,0.4189752 1.0114043,0.4189752 0.1221481,9.67e-5 0.2392521,0.048726 0.3255383,0.1351825 0.086286,0.086457 0.1346824,0.2036577 0.134537,0.3258057 v 1.8894128 c 1e-7,0.1219544 -0.048458,0.2389112 -0.1347105,0.3251288 C 5.2011631,8.4843837 5.0841872,8.532796 4.9622327,8.5327476 4.84031,8.5327476 4.7233809,8.484314 4.6371685,8.3981015 4.5509561,8.3118891 4.5025225,8.19496 4.5025225,8.0730373 V 6.5973272 C 3.4034494,6.3778193 2.6121548,5.4129824 2.6120143,4.2922035 Z"
     fill="#0e0904"
     fill-rule="evenodd"
     id="path28"
     style="stroke-width:0.856261;fill:#0000ff" />
  <g
     id="g36"
     transform="matrix(0.85626096,0,0,0.85626096,1.9559857,10.637321)">
    <path
       d="M 0.0915,1.074 V 0.009 h 0.459 q 0.078,0 0.144,0.0315 0.066,0.0315 0.114,0.08475 Q 0.8565,0.1785 0.88275,0.2445 0.909,0.3105 0.909,0.378 0.909,0.4725 0.86475,0.5565 0.8205,0.6405 0.74175,0.69375 0.663,0.747 0.558,0.747 H 0.384 V 1.074 H 0.0915 M 0.384,0.492 h 0.1545 q 0.018,0 0.0345,-0.0105 Q 0.5895,0.471 0.60075,0.4455 0.612,0.42 0.612,0.378 0.612,0.333 0.59925,0.30825 0.5865,0.2835 0.56775,0.27375 0.549,0.264 0.531,0.264 H 0.384 v 0.228 m 1.4009788,0.327 v 0.255 h -0.759 V 0.009 h 0.7455 v 0.255 h -0.453 v 0.15 h 0.387 v 0.237 h -0.387 v 0.168 h 0.4665 M 1.9214561,1.074 V 0.009 h 0.489 q 0.078,0 0.144,0.0315 0.066,0.0315 0.114,0.08475 0.048,0.05325 0.07425,0.11925 0.02625,0.066 0.02625,0.1335 0,0.0615 -0.018,0.1185 -0.018,0.057 -0.0525,0.10425 -0.0345,0.04725 -0.0825,0.08175 l 0.225,0.3915 h -0.321 l -0.1875,-0.327 h -0.1185 v 0.327 h -0.2925 m 0.2925,-0.582 h 0.1845 q 0.018,0 0.0345,-0.0135 0.0165,-0.0135 0.02775,-0.039 0.01125,-0.0255 0.01125,-0.0615 0,-0.0375 -0.01275,-0.06225 Q 2.4464561,0.291 2.4277061,0.2775 2.4089561,0.264 2.3909561,0.264 h -0.177 v 0.228 m 1.4789816,0.327 v 0.255 h -0.759 V 0.009 h 0.7455 v 0.255 h -0.453 v 0.15 h 0.387 v 0.237 h -0.387 v 0.168 h 0.4665 M 3.829415,1.074 V 0.009 h 0.489 q 0.078,0 0.144,0.0315 0.066,0.0315 0.114,0.08475 0.048,0.05325 0.07425,0.11925 0.02625,0.066 0.02625,0.1335 0,0.0615 -0.018,0.1185 -0.018,0.057 -0.0525,0.10425 -0.0345,0.04725 -0.0825,0.08175 l 0.225,0.3915 h -0.321 l -0.1875,-0.327 h -0.1185 v 0.327 h -0.2925 m 0.2925,-0.582 h 0.1845 q 0.018,0 0.0345,-0.0135 0.0165,-0.0135 0.02775,-0.039 0.01125,-0.0255 0.01125,-0.0615 0,-0.0375 -0.01275,-0.06225 Q 4.354415,0.291 4.335665,0.2775 4.316915,0.264 4.298915,0.264 h -0.177 V 0.492 M 5.0878967,0.009 h 0.327 l 0.339,1.065 h -0.297 l -0.0645,-0.2085 h -0.2835 l -0.063,0.2085 h -0.2985 l 0.3405,-1.065 m 0.258,0.6615 -0.0945,-0.375 -0.099,0.375 h 0.1935 M 6.8938044,0.819 v 0.255 h -0.759 V 0.009 h 0.7455 v 0.255 h -0.453 v 0.15 h 0.387 v 0.237 h -0.387 v 0.168 h 0.4665 M 7.6752817,0.357 q 0,0 -0.0255,-0.015 -0.0255,-0.015 -0.0675,-0.03375 -0.042,-0.01875 -0.0915,-0.03375 -0.0495,-0.015 -0.0975,-0.015 -0.0375,0 -0.0615,0.012 -0.024,0.012 -0.024,0.0405 0,0.027 0.024,0.0435 0.024,0.0165 0.06825,0.03 0.04425,0.0135 0.10575,0.033 0.099,0.03 0.171,0.069 0.072,0.039 0.111,0.09975 0.039,0.06075 0.039,0.16125 0,0.096 -0.0345,0.16125 -0.0345,0.06525 -0.093,0.10425 -0.0585,0.039 -0.1305,0.05625 -0.072,0.01725 -0.147,0.01725 -0.0765,0 -0.15975,-0.01575 -0.08325,-0.01575 -0.16125,-0.0435 -0.078,-0.02775 -0.1425,-0.06525 l 0.126,-0.2565 q 0,0 0.03,0.018 0.03,0.018 0.0795,0.0405 0.0495,0.0225 0.11025,0.0405 0.06075,0.018 0.12225,0.018 0.048,0 0.06675,-0.01275 0.01875,-0.01275 0.01875,-0.03375 0,-0.0315 -0.033,-0.04875 -0.033,-0.01725 -0.08625,-0.033 -0.05325,-0.01575 -0.11775,-0.03675 -0.093,-0.0315 -0.153,-0.07125 -0.06,-0.03975 -0.0885,-0.0945 -0.0285,-0.05475 -0.0285,-0.13275 0,-0.1185 0.0555,-0.198 0.0555,-0.0795 0.14625,-0.12075 Q 7.2972817,0 7.4022817,0 q 0.078,0 0.15075,0.01875 0.07275,0.01875 0.1365,0.04575 0.06375,0.027 0.11175,0.051 l -0.126,0.2415 M 8.7852883,0.264 h -0.306 v 0.81 h -0.2925 v -0.81 h -0.3075 V 0.009 h 0.906 V 0.264 M 9.0403198,0.009 h 0.327 l 0.339,1.065 h -0.297 l -0.0645,-0.2085 h -0.2835 l -0.063,0.2085 h -0.2985 l 0.3405,-1.065 m 0.258,0.6615 -0.0945,-0.375 -0.099,0.375 h 0.1935 M 10.526804,0.264 h -0.306 v 0.81 H 9.9283044 v -0.81 h -0.3075 V 0.009 h 0.9059996 v 0.255 m 0.865536,0.555 v 0.255 h -0.759 V 0.009 h 0.7455 v 0.255 h -0.453 v 0.15 h 0.387 v 0.237 h -0.387 v 0.168 h 0.4665"
       fill="#ed9200"
       fill-rule="nonzero"
       id="path34" />
  </g>
  <g
     id="g38"
     transform="matrix(0.85626096,0,0,0.85626096,1.9559857,10.637321)" />
  <defs
     id="defs48">
    <clipPath
       id="SvgjsClipPath56788">
      <path
         d=" M 0.7661549563671208 -10.155006981797008 h 9.905006981797008 v 9.905006981797008 h -9.905006981797008 Z"
         id="path42" />
    </clipPath>
    <clipPath
       id="SvgjsClipPath567838b9f6152-d6ec-4752-b3e9-4a5d3092d47b">
      <path
         d=" M 0.7661549563671208 -10.155006981797008 L 10.67116193816413 -10.155006981797008 L 10.67116193816413 -0.25 L 0.7661549563671208 -0.25 Z"
         id="path45" />
    </clipPath>
  </defs>
</svg>
